<svg xmlns="http://www.w3.org/2000/svg" viewBox="0 0 850 845.32"><g id="Layer_2" data-name="Layer 2"><g id="Layer_1-2" data-name="Layer 1"><path d="M334.9,67l194-13s-39,198-4,252l-176,68s-45-201-14-307" fill="#f57512"></path><path d="M298,47,492,34s-39,198-4,252L312,354S267,153,298,47" fill="#4fbaad"></path><polyline points="320 146 265 160 263 180 315 169" fill="#1d125d"></polyline><polyline points="314 187 263 200 261 220 316 206" fill="#1d125d"></polyline><path d="M333.9,13l194-13s-39,198-4,252l-176,68s-45-201-14-307" fill="#cf0380"></path><path d="M379,59s134.74,6,180-43" fill="none" stroke="#f57512" stroke-linecap="round" stroke-linejoin="round" stroke-width="10"></path><path d="M379,122s45.32,2,92.23-5.85" fill="none" stroke="#f57512" stroke-linecap="round" stroke-linejoin="round" stroke-width="10"></path><path d="M415.72,91.74c20.61-.89,47.24-3.22,72.74-8.95" fill="none" stroke="#f57512" stroke-linecap="round" stroke-linejoin="round" stroke-width="10"></path><path d="M532.29,68.07a106.21,106.21,0,0,0,16.25-9.78" fill="none" stroke="#f57512" stroke-linecap="round" stroke-linejoin="round" stroke-width="10"></path><polyline points="446.72 174.3 367.6 194.44 367 216.39 441.81 200.56" fill="#1d125d"></polyline><polyline points="415.69 240.91 417.07 159.28 397.35 154 392.94 230.34" fill="#1d125d"></polyline><path d="M546.15,138.94l5-.54,3.6,19.16-14.31.21Zm-15.28,66.72,6.67-21.95,18.62-1.45L562.4,209l35.52-10.49-28.41-83.19-35.73,2.37L503,197.32Z" fill="#cf0380"></path><path d="M553.2,242a45.6,45.6,0,0,1,7.73-.85q4.5,0,4.79,2a5.49,5.49,0,0,1,.06.8,4.35,4.35,0,0,1-2.88,4.11,16,16,0,0,1-6.54,1.08c-1.1,0-2.3-.06-3.59-.17Zm1.8-29-18,3,2.25,43.5a57.67,57.67,0,0,0,16.2,2.53,38,38,0,0,0,14.32-2.65q10.8-4.4,10.81-15.48a27.65,27.65,0,0,0-.46-4.8Q578,227.41,563.27,227.4a53.79,53.79,0,0,0-9.39.94l-.22,0Z" fill="#f57512"></path><path d="M264.65,112.41a5.83,5.83,0,0,1,0-9,8,8,0,0,1,10.24,0,5.83,5.83,0,0,1,0,9,8,8,0,0,1-10.24,0m2.16-24.28a5.24,5.24,0,0,1,0-7.34,5.2,5.2,0,1,1,0,7.34M294,86.56a17.68,17.68,0,0,0-6.58-13.87,24.66,24.66,0,0,0-31.51,0,17.68,17.68,0,0,0-6.58,13.87q0,7.5,4,11.43l-.83.67Q244,105.1,244,114.29t8.39,15.48a34.84,34.84,0,0,0,40.11,0q8.4-6.34,8.4-15.48t-8.5-15.63c-1.19-.9-1.79-1.35-1.82-1.35Q294,93.62,294,86.56" fill="#1d125d"></path><path d="M140,500.75s-107,26-115,37-25,147-25,147l327,19-22-163-127-32" fill="#361284"></path><path d="M127.38,469.75l-1,58s57,24,64,12-11-74-11-74" fill="#cf0380"></path><path d="M49,344.75s20,120,85,138,114-27,118-145-144-150-175-89-26,52-28,96" fill="#cf0380"></path><path d="M43,206.75s17,61,67,61,111,10,110,25,14-11,14-11l-4,17s11,97,17,89,38-91,20-128-21,5-21,5,6-58-49-85-97,26-115,16-47-14-48,0" fill="#8ed3cb"></path><path d="M73,229.75s-54,31-16,147l5,23s-9-125,46-148" fill="#8ed3cb"></path><path d="M127,424.75s1,37,25,37,40-52,40-52" fill="#fff"></path><path d="M138,389.75s-53,9-61,34-40,7-22-11c0,0-23,4-12,45s105,8,102-36c0,0,78.43,105.3,132,32,38-52-20-49-20-49s24.18,14.57,5,16c-67,5-24-41-124-31" fill="#4fbaad"></path><polyline points="61 713.75 58 511.75 257 504.75 216 715.75" fill="#f57512"></polyline><polyline points="251 716.75 240 608.75 180 603.75 177 616.75 201 623.75 168 625.75 166 636.75 173 641.75 168 656.75 194 669.75 165 672.75 165 683.75 197 686.75 215 719.75 233 737.75 253 736.75" fill="#cf0380"></polyline><polyline points="24 716.75 35 608.75 95 603.75 98 616.75 74 623.75 107 625.75 109 636.75 102 641.75 107 656.75 81 669.75 110 672.75 110 683.75 78 686.75 60 719.75 42 737.75 22 736.75" fill="#cf0380"></polyline><path d="M77.07,334.21s105.66-11.08,138,1.7c0,0-60.5-6-125.26,3.41" fill="#fff"></path><path d="M116.77,405s-34.25,12.56-53.65,3.42S38,379.88,38,366.18s11.42-37.67,61.65-32,45.66,39.95,45.66,39.95S130.47,402.72,116.77,405" fill="#fff"></path><path d="M179.67,405s34.25,12.56,53.66,3.42,25.11-28.54,25.11-42.24-11.41-37.67-61.64-32-45.67,39.95-45.67,39.95S166,402.72,179.67,405" fill="#fff"></path><path d="M120.53,347s64.76-1.71,70.72,3.41-67.32-1.71-67.32,2.55,9.38,15.34,9.38,15.34l8.52,6.82s.85-16.19,6.82-14.49,8.52,17.9,8.52,17.9-19.6,0-22.16,3.41" fill="#fff"></path><path d="M575,379s-21,133,29,170,101,21,101,21,66,8,95-100-96-239-96-239" fill="#f56112"></path><path d="M768,293s19,145,0,162l22-12s-12,85-24,92c0,0,56-71,57-108s-4-148-49-179" fill="#f57512"></path><path d="M703,511s107,26,115,37,25,147,25,147L516,714l22-163,127-32" fill="#fff"></path><path d="M715.62,480l1,58s-57,24-64,12,11-74,11-74" fill="#4fbaad"></path><path d="M794,355s-20,120-85,138S595,466,591,348s144-150,175-89,26,52,28,96" fill="#4fbaad"></path><path d="M800,217s-17,61-67,61-111,10-110,25-14-11-14-11l4,17s-11,97-17,89-38-91-20-128,21,5,21,5-6-58,49-85,97,26,115,16,47-14,48,0" fill="#f57512"></path><path d="M770,240s54,31,16,147l-5,23s9-125-46-148" fill="#f57512"></path><path d="M724,412s-1,37-25,37-40-52-40-52" fill="#fff"></path><path d="M576,273s-39,142-32,213,65,78,65,78-32-98-7-146-7-128-7-128" fill="#f57512"></path><line x1="727.5" y1="356.5" x2="727.5" y2="373.5" fill="none" stroke="#361284" stroke-linecap="round" stroke-linejoin="round" stroke-width="15"></line><line x1="663.5" y1="356.5" x2="663.5" y2="373.5" fill="none" stroke="#361284" stroke-linecap="round" stroke-linejoin="round" stroke-width="15"></line><polyline points="811 714 814 512 615 505 656 716" fill="#29007d"></polyline><polyline points="621 717 632 609 692 604 695 617 671 624 704 626 706 637 699 642 704 657 678 670 707 673 707 684 675 687 657 720 639 738 619 737" fill="#4fbaad"></polyline><polygon points="774 617 798 624 765 626 763 637 770 642 765 657 791 670 762 673 762 684 794 687 812 720 830 738 850 737 848 717 837 609 777 604 774 617" fill="#4fbaad"></polygon><path d="M283.93,407.63s-25.6,162.16,35.36,207.27,123.14,25.6,123.14,25.6,80.47,9.75,115.82-121.92-117-291.39-117-291.39" fill="#1d125d"></path><path d="M519.24,302.78s23.16,176.79,0,197.51l26.82-14.63S531.43,589.29,516.8,597.83c0,0,68.28-86.57,69.49-131.68s-4.87-180.44-59.74-218.23" fill="#7e00ff"></path><path d="M440,573.52S570.45,608,580.2,622.57s30.48,194.87,30.48,194.87L212,842.63s19.69-207.11,40-220.92,141.65-37.59,141.65-37.59" fill="#29007d"></path><path d="M455.37,530.77l1.22,70.72s-69.49,29.26-78,14.63S392,525.89,392,525.89" fill="#f57512"></path><path d="M550.94,378.37S526.55,524.68,447.31,546.62s-139-32.92-143.87-176.78S479,187,516.8,261.33s31.7,63.4,34.14,117" fill="#f57512"></path><path d="M509.44,254.11s81.75,34.22,30.45,154.41l-15.6,21.74s12.14-129.52-62.1-153.35" fill="#7e00ff"></path><path d="M463.23,448.22s-5.09,53.73-34.06,57.89c-53.85,7.72-48.77-63.4-48.77-63.4" fill="#fff"></path><path d="M285.15,278.4s-47.55,173.12-39,259.69,79.25,95.09,79.25,95.09-39-119.48-8.54-178-8.53-156.06-8.53-156.06" fill="#7e00ff"></path><line x1="453.48" y1="385.81" x2="453.48" y2="406.54" fill="none" stroke="#361284" stroke-linecap="round" stroke-linejoin="round" stroke-width="18.29"></line><line x1="375.45" y1="385.81" x2="375.45" y2="406.54" fill="none" stroke="#361284" stroke-linecap="round" stroke-linejoin="round" stroke-width="18.29"></line><polyline points="571.66 816.06 575.86 554.47 332.7 561.25 348.52 816.09" fill="#fff"></polyline><polyline points="309.05 806.54 322.46 674.86 395.62 668.77 399.27 684.62 370.01 693.15 410.25 695.59 412.69 709 404.15 715.1 410.25 733.38 378.55 749.24 413.9 752.89 413.9 766.3 374.89 769.96 352.94 810.2 331 832.14 306.62 830.92" fill="#f57512"></polyline><polygon points="526.55 697.8 555.82 706.34 515.58 708.77 513.14 722.19 521.68 728.28 515.58 746.57 547.28 762.42 511.92 766.08 511.92 779.49 550.94 783.15 572.88 823.38 594.83 845.33 619.21 844.11 616.77 819.72 603.36 688.05 530.21 681.95 526.55 697.8" fill="#f57512"></polygon><path d="M555.53,226c-20.32-22.72-105.41-53.45-191.77-17.37S282.48,284,279.94,301.74l1.27,57.82s43.18-4,85.09,1.34l1.27-66.81,7.62,66.81a500.36,500.36,0,0,1,52.07-2.6V286.07s3.19,41.32,6.81,72.34c12.79.33,25.67,1.41,36.37,3.82,0,0,7.62-29.39,10.16-57.45l1.27,60.13,3.37.24,4.25-47,1,47.39,84.11,6.06S575.85,248.66,555.53,226" fill="#7e00ff"></path><path d="M483.78,451c10.87,0,19.68-5.83,19.68-13s-8.81-13-19.68-13-19.69,5.83-19.69,13,8.82,13,19.69,13" fill="#cf0380"></path><path d="M355.51,444.61c10.87,0,19.69-5.83,19.69-13s-8.82-13-19.69-13-19.69,5.83-19.69,13,8.82,13,19.69,13" fill="#cf0380"></path></g></g></svg>